<svg version="1.1" id="Layer_1" xmlns="http://www.w3.org/2000/svg" xmlns:xlink="http://www.w3.org/1999/xlink" x="0px" y="0px"
	 width="100%" viewBox="0 0 960 1024" enable-background="new 0 0 960 1024" xml:space="preserve">
<path fill="#FFFFFF" opacity="1.000000" stroke="none" 
	d="
M209.419495,57.771027 
	C208.467026,57.313076 207.767868,57.109737 207.322876,56.656719 
	C201.518021,50.747044 204.504654,35.228218 212.147568,32.344036 
	C218.262589,30.036427 223.061829,26.644638 224.726456,19.959820 
	C225.224121,17.961317 226.463867,17.249638 228.416748,17.541611 
	C228.745682,17.590788 229.105637,17.529772 229.409058,17.637983 
	C233.943268,19.255093 240.058105,14.627316 243.073746,19.309437 
	C245.827545,23.584955 249.817062,26.666670 252.283905,30.985434 
	C253.444717,33.017712 254.884598,34.232372 257.257080,34.645313 
	C263.675110,35.762379 264.338013,37.430286 260.787750,43.448334 
	C262.871735,45.419010 263.732513,47.989849 263.992767,50.915318 
	C264.403137,55.527924 264.073395,59.219082 258.050812,59.581604 
	C255.417938,59.740089 254.141144,62.003586 254.298431,64.671883 
	C254.572800,69.326714 254.894394,73.981705 255.344147,78.622284 
	C255.675827,82.044472 258.048767,83.888145 261.160309,83.526711 
	C268.675293,82.653770 276.932129,84.932968 283.270660,78.457535 
	C284.778625,76.916992 287.178741,76.814240 289.439789,77.224983 
	C295.347290,78.298172 301.282715,78.877686 307.318817,78.778046 
	C312.791595,78.687714 315.195312,81.320816 316.525604,87.925583 
	C317.550385,93.013603 316.030884,96.462593 311.307159,98.446190 
	C301.995056,102.356552 292.469971,103.987495 282.637939,100.196762 
	C276.160919,97.699554 269.403748,97.059723 262.516235,97.216301 
	C259.114990,97.293617 256.530090,98.717613 257.374146,102.243202 
	C258.976562,108.936272 257.256592,115.472275 257.346649,122.068855 
	C257.465973,130.810501 258.987518,132.153320 267.722778,131.979431 
	C271.720947,131.899826 275.716400,131.627609 279.714111,131.600815 
	C282.346375,131.583176 284.543182,130.825226 286.543060,129.068237 
	C290.694000,125.421516 295.452820,124.293289 300.947021,125.476608 
	C305.649139,126.489326 310.459503,127.007263 315.228424,127.699783 
	C319.805847,128.364517 320.847382,131.905075 321.612671,135.582306 
	C322.814392,141.356461 321.346802,146.121490 317.092590,148.286041 
	C309.189514,152.307129 300.655426,153.463470 291.860504,152.671036 
	C290.900818,152.584579 289.698486,152.337143 289.085358,151.703278 
	C283.337250,145.760513 275.955536,145.914902 268.569305,146.004929 
	C262.776855,146.075516 257.417236,145.564545 256.071167,138.280365 
	C255.761505,136.604599 254.432312,135.190277 252.431473,135.589920 
	C250.163208,136.042984 250.533554,137.882141 250.673416,139.594269 
	C250.849472,141.749405 250.983459,143.922516 250.911896,146.080429 
	C250.748611,151.003586 251.371918,155.174347 256.855957,157.392639 
	C259.857056,158.606552 260.653961,161.701828 259.996857,165.069290 
	C256.805725,181.422318 258.364899,197.900497 258.903625,214.341461 
	C259.159790,222.159668 259.815674,229.964050 260.135284,237.781036 
	C261.938232,281.877411 263.615845,325.979126 265.511627,370.071472 
	C266.111816,384.030487 267.198944,397.970001 268.168701,411.911102 
	C268.598480,418.089355 270.434570,419.945679 276.753540,420.606171 
	C305.513397,423.612213 329.639496,436.279541 349.395386,456.871765 
	C368.548309,476.835480 378.376038,501.268616 380.230957,528.838257 
	C381.431427,546.680725 378.452606,563.980713 373.212982,581.010010 
	C370.453003,589.980286 369.254242,599.184448 371.220184,608.591736 
	C371.854645,611.627502 373.417175,614.114685 374.880768,616.728821 
	C376.537781,619.688354 377.835327,622.875549 376.051910,626.205872 
	C374.218323,629.629761 370.894989,628.493652 367.986267,628.405212 
	C354.961731,628.009338 345.640503,634.000549 341.722137,646.410522 
	C331.215424,679.686462 332.116119,712.347839 348.183807,743.903503 
	C356.876678,760.975647 370.126984,770.695923 390.074646,769.710876 
	C396.663696,769.385437 400.597290,775.690308 396.871704,781.097900 
	C392.340240,787.675049 393.236755,793.752625 396.126740,800.399231 
	C402.966827,816.130615 410.544434,831.786438 413.595215,848.695312 
	C422.509460,898.102783 412.426178,942.397888 375.399139,978.343750 
	C360.356110,992.947571 341.067932,999.677124 321.332886,1005.115051 
	C314.080536,1007.113403 307.986176,1011.777893 300.528748,1013.396362 
	C286.793793,1016.377380 272.818604,1017.281311 258.908905,1017.933411 
	C231.418381,1019.222168 203.898758,1018.708740 177.137573,1011.222839 
	C147.412781,1002.907837 120.486664,989.485657 100.325951,965.198547 
	C89.155426,951.741699 80.188698,937.119812 78.105560,919.086670 
	C76.829437,908.039612 73.337891,897.378601 72.413048,886.175964 
	C70.704468,865.479614 74.359787,845.742493 81.259865,826.417786 
	C85.242584,815.263611 89.863350,804.396790 95.987106,794.205444 
	C99.760162,787.926147 105.110435,784.627319 112.479111,784.945312 
	C117.257568,785.151489 119.610359,787.419983 119.299187,792.241760 
	C118.915108,798.193604 118.147568,804.145691 117.120628,810.023438 
	C116.221573,815.169312 116.315956,820.311523 116.291725,825.465027 
	C116.201630,844.627014 131.312180,860.239075 150.512772,860.639343 
	C164.507355,860.931091 178.423386,859.202148 192.383377,858.544617 
	C197.363174,858.310120 199.537430,855.341614 199.331192,850.633972 
	C198.733597,836.994751 197.998230,823.355896 197.744247,809.708923 
	C197.471619,795.059265 197.276291,780.386963 197.762634,765.748291 
	C199.172592,723.310547 200.943802,680.884827 202.568115,638.454163 
	C203.287979,619.649597 204.036469,600.846008 204.699371,582.039368 
	C205.784576,551.251648 206.461746,520.444519 207.989136,489.679291 
	C208.940567,470.515015 208.740662,451.378235 208.644394,432.224670 
	C208.629822,429.326965 208.962296,426.692352 210.592468,424.150238 
	C212.431564,421.282257 212.739502,417.940643 212.781433,414.541931 
	C213.132751,386.050995 213.376648,357.557190 213.987869,329.071411 
	C214.917038,285.768158 216.515869,242.478134 216.582870,199.158829 
	C216.593430,192.335480 216.143311,185.504517 215.711655,178.689407 
	C215.322342,172.542953 213.017578,170.368576 206.928436,170.206970 
	C202.765656,170.096512 198.593185,170.329239 194.431686,170.197952 
	C190.046936,170.059631 186.120712,170.453186 183.939651,175.113312 
	C183.032211,177.052170 181.147156,177.103012 179.158234,176.615860 
	C172.495819,174.984055 165.701447,174.497284 158.858810,174.350693 
	C154.210541,174.251114 151.429855,171.741745 150.718887,167.129425 
	C149.744766,160.809998 151.419739,156.087814 156.040054,155.082184 
	C164.463654,153.248764 173.062927,152.209656 181.606445,150.959137 
	C182.485031,150.830551 183.630539,151.307281 184.401993,151.855316 
	C191.375458,156.809219 199.270996,156.127213 207.085739,155.511200 
	C212.147980,155.112167 214.343521,152.264526 213.243225,147.407242 
	C211.829803,141.167694 213.666946,135.144714 213.848068,129.020828 
	C214.099182,120.530800 211.863922,118.569702 203.548233,119.694817 
	C200.917191,120.050789 198.236374,120.315239 195.592133,120.223610 
	C192.621338,120.120682 190.101791,120.517563 187.925201,122.856430 
	C186.116180,124.800316 183.612518,125.178314 180.974609,124.635551 
	C173.963516,123.192993 166.916031,122.001587 159.798203,121.158379 
	C155.412033,120.638779 153.021347,117.279587 153.106995,112.612732 
	C153.205627,107.238312 155.692047,104.269279 160.494263,103.645309 
	C167.899933,102.683083 175.482971,102.846611 182.615936,100.127098 
	C184.694016,99.334808 186.478241,100.208549 188.255844,101.284821 
	C194.315430,104.953705 200.985214,106.071594 207.940414,105.601807 
	C213.579971,105.220894 215.342682,102.743111 213.715714,97.401672 
	C212.460190,93.279716 212.161682,89.221298 213.572891,85.134293 
	C215.847839,78.545776 215.905991,71.758781 215.809296,64.894325 
	C215.749115,60.622326 214.060776,58.290627 209.419495,57.771027 
M389.444824,874.072571 
	C389.252808,873.092285 389.044983,872.114807 388.871002,871.131348 
	C378.648376,813.340393 346.939362,770.330994 298.051605,739.151855 
	C296.107239,737.911804 293.996399,736.276855 291.622955,737.739685 
	C289.409180,739.104126 290.189758,741.627075 290.184296,743.720215 
	C290.145203,758.707153 291.714050,773.646484 291.379395,788.650940 
	C290.933990,808.621155 291.683044,828.592468 290.462830,848.576294 
	C289.113220,870.679199 287.471710,892.732605 284.646698,914.695312 
	C282.548126,931.010620 280.373322,947.317017 278.427094,963.650574 
	C277.436798,971.961304 278.758575,973.181885 287.354095,972.832764 
	C292.080811,972.640808 296.948883,972.533264 300.809601,975.506958 
	C308.013458,981.055786 315.504852,980.745850 323.469940,977.821594 
	C327.528320,976.331604 331.709351,975.179077 335.815399,973.815125 
	C352.816956,968.167664 365.723419,957.278748 375.200531,942.321777 
	C388.275726,921.686035 392.870789,899.132263 389.444824,874.072571 
M274.571198,479.985413 
	C275.070496,487.295288 275.638000,494.601257 276.057159,501.915710 
	C277.780914,531.996643 279.566895,562.074646 281.124298,592.164368 
	C282.647308,621.589600 284.597809,651.017517 285.044678,680.464172 
	C285.305511,697.653381 291.022552,710.081116 307.116425,716.994202 
	C307.571960,717.189880 307.966827,717.522400 308.412994,717.744995 
	C313.764282,720.414490 317.829376,717.830139 317.549255,711.828369 
	C317.386536,708.341187 316.869446,704.872070 316.642517,701.386230 
	C314.973145,675.743896 320.427765,651.400452 330.143311,627.846375 
	C337.507629,609.992493 345.873413,592.548096 352.141479,574.246460 
	C357.319733,559.126953 360.861572,543.552734 358.284668,527.642151 
	C351.672058,486.813599 327.961395,460.563751 288.487823,448.475800 
	C278.360474,445.374512 273.020782,449.437286 273.333923,460.109833 
	C273.519348,466.430939 274.060852,472.741547 274.571198,479.985413 
M244.444962,765.690979 
	C255.921677,765.556946 267.321167,764.383911 278.703003,763.046021 
	C280.386414,762.848145 282.836182,763.531250 283.459473,761.266235 
	C284.123993,758.851562 282.776672,756.708618 281.054382,755.038757 
	C279.199249,753.240173 276.824829,752.417236 274.266724,752.268555 
	C270.279907,752.036926 266.317688,752.104065 262.332520,752.687805 
	C257.749176,753.359131 253.142548,754.449646 248.470596,753.697388 
	C243.766235,752.939880 239.275360,752.657593 236.100342,757.399048 
	C234.554276,755.715881 233.704102,753.916565 231.792755,753.436890 
	C225.931686,751.965698 219.967041,751.288818 214.005630,752.389465 
	C210.567032,753.024353 208.095291,755.179077 207.083420,758.814392 
	C206.266296,761.750000 206.502731,763.355347 210.152924,763.881104 
	C221.216614,765.474792 232.313568,765.908081 244.444962,765.690979 
M223.535797,152.502350 
	C225.868073,148.271744 224.980804,143.762253 224.577698,139.327850 
	C224.432007,137.725250 223.357773,136.528030 221.607941,136.489914 
	C219.992966,136.454712 219.337494,137.734650 218.955338,139.048264 
	C217.772751,143.113083 217.688644,147.279495 218.382660,151.404404 
	C218.880005,154.360291 220.646072,154.860275 223.535797,152.502350 
z"/>
<path fill="#FFFFFF" opacity="1.000000" stroke="none" 
	d="
M833.565918,808.401978 
	C833.388855,810.681824 833.402527,812.528870 833.139771,814.335754 
	C832.163818,821.048279 827.126282,823.412659 821.629089,819.406128 
	C815.690369,815.077759 810.871399,809.485046 805.936340,804.068359 
	C794.480652,791.494690 784.016968,778.111389 773.736511,764.578308 
	C773.173279,763.836792 772.858643,762.734558 771.281799,762.673096 
	C769.885681,773.734131 770.146851,784.822937 770.735657,795.907837 
	C771.080688,802.403748 771.455750,808.884644 770.321777,815.337158 
	C769.644348,819.191528 769.008484,823.247559 763.784058,823.204224 
	C759.741089,823.170776 757.555725,820.111877 757.697571,814.575500 
	C758.140991,797.267395 759.289001,779.967285 758.037842,762.647400 
	C757.666016,757.499939 757.422424,752.343018 757.029663,747.197266 
	C756.684814,742.678650 756.726562,738.172729 761.715759,736.197388 
	C766.924561,734.135193 769.744019,737.843994 772.236694,741.533020 
	C782.689087,757.001892 793.481201,772.214661 806.068420,786.052063 
	C810.749512,791.198181 815.664856,796.131042 820.387939,801.071777 
	C822.447449,799.854797 821.876160,798.369202 821.850403,797.159180 
	C821.485535,780.048401 822.549316,762.845703 818.000427,746.016907 
	C817.043457,742.476624 817.113770,738.431030 821.683472,736.832275 
	C825.825928,735.383179 829.044006,737.560791 831.031250,742.806458 
	C833.435791,749.153564 833.730164,755.891663 833.967102,762.492249 
	C834.510681,777.636841 834.370361,792.802368 833.565918,808.401978 
z"/>
<path fill="#FFFFFF" opacity="1.000000" stroke="none" 
	d="
M442.196838,756.268188 
	C454.847015,736.009338 475.967529,733.356995 494.489105,740.973328 
	C501.332825,743.787659 506.042389,749.146240 507.860931,756.259216 
	C513.074829,776.651978 509.361572,795.355408 495.329559,811.280945 
	C484.371490,823.717834 466.432129,826.137268 450.835663,818.129089 
	C436.479340,810.757812 429.979095,795.853882 433.364197,778.213196 
	C434.856628,770.435608 437.483490,763.132996 442.196838,756.268188 
M494.092926,789.505554 
	C496.608643,782.906006 498.102448,776.075256 497.570770,769.019348 
	C497.073364,762.417969 495.712524,755.789673 488.919800,752.686523 
	C481.391907,749.247620 473.335846,748.787720 465.613495,751.894592 
	C452.393860,757.213074 441.948730,779.958740 446.032806,793.693970 
	C450.557739,808.911865 471.415619,815.063782 483.616425,804.806885 
	C488.329712,800.844604 491.386810,795.763000 494.092926,789.505554 
z"/>
<path fill="#FFFFFF" opacity="1.000000" stroke="none" 
	d="
M681.050659,754.129761 
	C693.951660,736.806763 710.117126,733.901855 729.265137,739.835266 
	C739.249268,742.929077 744.810181,750.484741 746.509583,760.613770 
	C750.018677,781.528992 745.274170,800.134766 729.134521,814.547424 
	C710.303772,831.363220 676.671997,820.887451 671.186584,796.492126 
	C667.749817,781.207275 672.288086,767.226257 681.050659,754.129761 
M721.352661,750.978149 
	C706.772400,747.998535 697.236267,752.083923 689.564453,764.603210 
	C686.131042,770.205994 683.932495,776.195435 683.011780,782.766541 
	C681.415283,794.160217 685.746216,803.026001 695.485779,807.396606 
	C706.165100,812.189026 717.570862,809.904358 724.581482,801.473938 
	C733.421204,790.844116 736.310486,778.498596 734.557129,765.009399 
	C733.610413,757.725220 729.694153,752.732544 721.352661,750.978149 
z"/>
<path fill="#FFFFFF" opacity="1.000000" stroke="none" 
	d="
M585.345581,912.347961 
	C583.710022,929.787720 577.739319,944.589172 562.716492,954.044312 
	C543.739990,965.987976 515.892883,955.560120 509.553894,934.388977 
	C503.245392,913.319580 517.587646,877.763489 543.739990,874.259155 
	C556.853333,872.502075 570.092896,873.181641 579.270691,884.830750 
	C585.447327,892.670654 586.131287,902.245544 585.345581,912.347961 
M569.048767,892.556580 
	C567.408813,890.611572 565.456726,889.054199 563.033081,888.255737 
	C549.468872,883.787292 537.957520,886.026611 529.488586,897.974060 
	C524.890198,904.461365 522.060120,911.542236 520.921814,919.507446 
	C519.520203,929.315125 522.460144,937.074890 530.805359,942.197144 
	C539.361877,947.449280 548.520630,948.071899 557.229492,942.500610 
	C571.253357,933.529358 577.482483,907.890381 569.048767,892.556580 
z"/>
<path fill="#FFFFFF" opacity="1.000000" stroke="none" 
	d="
M873.885864,892.297241 
	C881.619324,907.763916 879.125549,913.596802 858.645081,928.126099 
	C862.657959,930.931091 866.563110,933.639648 870.445129,936.380920 
	C873.592773,938.603760 876.310974,941.303589 878.884766,944.152649 
	C881.657288,947.221558 882.658630,950.679016 879.712585,953.993347 
	C876.517456,957.588013 873.067444,956.169678 870.103027,953.405151 
	C862.244751,946.076660 853.622742,939.898804 843.785889,935.497314 
	C840.793518,934.158325 837.870544,932.560852 834.325439,932.437439 
	C832.636230,936.860962 834.463562,941.155396 834.161743,945.405334 
	C834.032288,947.228333 834.272522,949.079712 834.113770,950.898010 
	C833.807068,954.410339 832.254333,957.022827 828.359131,957.216675 
	C824.455994,957.410828 822.140320,954.919128 822.072510,951.493164 
	C821.875000,941.513306 820.172180,931.554810 821.188049,921.573792 
	C822.487488,908.808411 823.597839,896.077332 822.321106,883.227539 
	C821.580505,875.773560 824.825500,872.618652 832.492981,872.668091 
	C849.191956,872.775757 863.583984,877.801208 873.885864,892.297241 
M837.833191,917.666687 
	C846.058472,917.571777 854.187256,917.001709 860.923401,911.480835 
	C865.258667,907.927673 865.950623,904.282715 863.486877,899.595947 
	C859.233337,891.504456 844.819458,884.553284 835.030457,886.118469 
	C835.607727,895.322998 835.477722,904.574036 834.340637,913.790894 
	C834.099487,915.745605 834.360413,917.549561 837.833191,917.666687 
z"/>
<path fill="#FFFFFF" opacity="1.000000" stroke="none" 
	d="
M481.767487,924.843384 
	C479.732239,925.911377 478.002625,926.794556 475.844482,927.896545 
	C483.715454,932.867920 491.103241,937.627136 497.016907,944.292664 
	C499.247131,946.806396 500.057678,949.513000 498.772644,952.547485 
	C497.033936,956.653320 492.475830,957.246460 488.356964,953.626953 
	C480.182098,946.443237 471.663849,939.833984 461.620819,935.419678 
	C458.615479,934.098755 455.650970,932.669739 451.990509,932.381409 
	C450.500366,937.528076 452.310913,942.272156 452.204895,947.011108 
	C452.044861,954.162903 450.557739,957.109863 446.225159,957.249023 
	C441.731201,957.393372 440.389709,954.272034 439.577057,946.986267 
	C437.418365,927.632874 441.624359,908.464111 440.718414,889.171448 
	C440.548248,885.547974 439.525238,881.919739 440.706818,878.260681 
	C441.719330,875.125000 443.525543,872.854553 446.974182,872.734558 
	C461.961700,872.212952 475.794067,875.213745 486.906647,886.227539 
	C491.275818,890.557800 494.408234,895.530579 495.293701,901.746765 
	C496.875488,912.851013 491.125916,919.702332 481.767487,924.843384 
M461.110168,917.624390 
	C468.006897,916.567688 474.932281,915.700928 480.206116,910.282288 
	C482.858826,907.556763 483.390991,904.647156 482.091034,901.194519 
	C478.719879,892.240906 462.747711,883.998108 453.017792,886.376038 
	C453.566803,895.266968 453.580231,904.197937 452.311798,913.082520 
	C451.818085,916.540710 453.223602,918.069885 456.735077,917.695923 
	C457.884308,917.573608 459.056000,917.662231 461.110168,917.624390 
z"/>
<path fill="#FFFFFF" opacity="1.000000" stroke="none" 
	d="
M802.450806,960.015259 
	C791.744385,961.067444 781.471436,961.621338 771.135803,960.368225 
	C760.525269,959.081909 756.419556,955.984680 755.116455,945.337463 
	C753.722656,933.948792 754.522095,922.457703 755.226562,910.989807 
	C755.744385,902.560669 757.145691,894.121399 755.946594,885.622314 
	C755.668518,883.651489 755.644470,881.636597 755.614136,879.640320 
	C755.492004,871.598694 756.865784,870.852905 764.973083,871.323059 
	C769.495300,871.585327 774.107910,869.908630 778.706543,869.311707 
	C788.038879,868.100281 797.322021,868.249268 806.398254,871.071960 
	C811.593567,872.687744 813.551880,875.604980 812.110474,879.853149 
	C810.581726,884.358704 807.069214,884.427368 803.108643,883.485168 
	C793.081177,881.099548 783.043518,880.860474 772.917114,883.188171 
	C769.540894,883.964172 768.130554,885.374756 768.269592,888.905518 
	C768.472656,894.060364 768.380615,899.238770 768.145630,904.394836 
	C767.987915,907.857178 769.191895,908.538086 772.569031,908.145081 
	C781.813477,907.069397 791.102173,906.292175 800.393433,905.730347 
	C806.089478,905.385925 808.891846,907.620117 808.951843,911.687927 
	C809.009949,915.630371 806.476807,917.767273 801.108643,918.214355 
	C792.156128,918.960022 783.200623,919.669739 774.246338,920.394409 
	C766.978394,920.982544 766.333557,921.582275 766.381104,928.872986 
	C766.411438,933.519287 766.122070,938.155884 766.950378,942.820740 
	C767.609009,946.529907 769.442871,948.012573 772.984192,947.938721 
	C781.801392,947.754944 790.635620,948.389221 799.434082,947.240479 
	C803.166626,946.753113 806.684143,947.342896 807.844421,951.592957 
	C809.010681,955.864807 807.075195,958.669373 802.450806,960.015259 
z"/>
<path fill="#FFFFFF" opacity="1.000000" stroke="none" 
	d="
M683.712891,873.390137 
	C686.624634,878.779419 685.467834,884.217712 684.915649,889.373413 
	C684.148193,896.538818 684.580750,903.668884 684.315552,910.807373 
	C684.182373,914.392883 685.921265,915.017151 689.017639,914.413269 
	C701.094971,912.057617 713.167847,909.627747 725.463074,908.679626 
	C728.553406,908.441223 728.677124,906.418640 728.770996,904.142395 
	C729.065857,896.998474 728.660950,889.830688 729.625183,882.706726 
	C729.964539,880.199097 730.581177,877.797913 731.695129,875.562134 
	C732.873474,873.196960 734.589355,871.287964 737.573059,872.083374 
	C740.675903,872.910583 742.476501,875.127075 742.134583,878.361389 
	C740.560303,893.249146 741.018066,908.238037 739.681213,923.155029 
	C738.944580,931.374084 740.153992,939.759216 740.347168,948.072632 
	C740.506531,954.933167 738.696960,957.775085 734.536926,957.708618 
	C730.618896,957.646057 729.114746,954.506714 728.591797,947.832764 
	C727.894470,938.933228 727.746521,930.005005 727.442688,920.821045 
	C717.736084,920.855347 708.863464,923.006653 699.925964,924.620300 
	C696.164734,925.299316 692.463867,926.349915 688.686951,926.893494 
	C685.318542,927.378235 684.424377,929.223022 684.299072,932.343933 
	C684.025574,939.151672 683.477600,945.950073 682.956238,952.745728 
	C682.666748,956.519287 681.436523,959.745789 676.944031,959.951538 
	C673.453064,960.111389 670.349609,956.816040 670.974548,952.239868 
	C674.027710,929.883057 671.479858,907.343628 673.507996,884.970093 
	C673.687866,882.985779 673.608704,880.978577 673.665833,878.982483 
	C673.860107,872.188904 677.197510,870.169739 683.712891,873.390137 
z"/>
<path fill="#FFFFFF" opacity="1.000000" stroke="none" 
	d="
M553.744263,822.196350 
	C544.805969,822.698975 536.645630,821.670105 529.158203,817.304504 
	C525.271362,815.038208 522.305115,812.098511 521.306152,807.481262 
	C520.630188,804.356689 521.194824,801.763123 524.145264,800.239990 
	C527.018921,798.756592 529.533508,799.497498 531.783386,801.851257 
	C541.297791,811.804565 552.640747,813.489502 564.983948,806.880310 
	C569.697876,804.356323 572.956848,800.834351 572.812317,795.109253 
	C572.671326,789.527710 568.624817,787.184021 564.338745,785.024170 
	C558.493530,782.078796 551.971008,782.721436 545.813843,781.438904 
	C545.001892,781.269775 544.132812,781.340515 543.339661,781.121094 
	C536.720886,779.290405 530.483093,776.768127 528.423157,769.353699 
	C526.368408,761.958069 529.433594,755.980408 534.545166,750.869141 
	C545.494507,739.920532 561.932556,736.740356 576.175659,742.692993 
	C579.557922,744.106567 582.149231,746.178833 581.100464,750.207947 
	C580.085022,754.108887 576.670715,753.581360 573.668518,753.407532 
	C567.405212,753.044739 561.304688,750.509399 554.872375,752.250183 
	C549.922974,753.589722 545.290222,755.329041 542.696777,760.148621 
	C540.343750,764.521423 541.422485,767.347412 546.032837,769.245605 
	C551.080750,771.323853 556.536804,770.777893 561.787476,771.556396 
	C565.449036,772.099182 568.982849,772.859497 572.323792,774.474365 
	C588.164917,782.131287 590.263000,803.002808 576.278687,813.673767 
	C569.740295,818.662964 562.365967,821.418640 553.744263,822.196350 
z"/>
<path fill="#FFFFFF" opacity="1.000000" stroke="none" 
	d="
M912.709229,880.558289 
	C922.723511,875.183960 932.782043,875.076355 943.069031,878.200928 
	C944.022156,878.490417 944.952942,878.865906 945.871521,879.254639 
	C949.143250,880.639099 951.272705,882.876770 950.080017,886.620117 
	C948.924622,890.246521 945.818237,890.425232 942.676697,889.873535 
	C937.273438,888.924744 931.917603,887.654175 926.356384,888.215332 
	C921.372375,888.718201 916.978149,890.510254 913.517944,894.180237 
	C908.806152,899.177734 909.940125,903.873108 916.552490,905.742676 
	C920.353943,906.817444 924.377075,907.253418 928.333313,907.593872 
	C932.187195,907.925537 935.926697,908.606995 939.504333,910.001160 
	C947.295471,913.037292 952.866333,918.252258 954.256958,926.783691 
	C955.794922,936.219238 952.956238,944.212341 945.284058,950.229187 
	C933.317871,959.613464 912.211060,961.321838 898.874878,953.971863 
	C894.804626,951.728577 891.615845,948.751648 890.483276,943.973083 
	C889.744263,940.854858 890.355469,938.278992 893.172424,936.637329 
	C896.247131,934.845398 898.869385,935.866394 901.195740,938.318787 
	C909.890320,947.484192 920.543945,949.501160 932.089905,944.194458 
	C934.834229,942.933105 937.360596,941.324402 939.337891,938.990051 
	C943.528625,934.042664 942.837341,927.522278 937.615540,923.662292 
	C932.615601,919.966125 926.801270,918.657166 920.720703,918.379028 
	C916.369629,918.179993 912.071472,917.689636 908.022278,916.037842 
	C896.955139,911.523315 893.773499,900.516785 900.690063,890.718384 
	C903.728149,886.414490 907.936218,883.422974 912.709229,880.558289 
z"/>
<path fill="#FFFFFF" opacity="1.000000" stroke="none" 
	d="
M635.240234,900.912720 
	C635.957458,915.352783 636.681641,929.314819 637.337830,943.280090 
	C637.439087,945.434631 637.485413,947.650452 637.104187,949.755859 
	C636.457581,953.326660 634.608948,956.257385 630.497681,955.798035 
	C626.664185,955.369751 624.800720,952.662903 624.774719,948.799866 
	C624.727661,941.809143 625.003906,934.800781 624.601440,927.831177 
	C623.836731,914.589355 622.688599,901.369751 621.702209,888.173279 
	C614.579224,886.742310 607.825684,888.004517 601.305481,886.352234 
	C597.335876,885.346313 594.281860,883.696228 594.882324,879.023560 
	C595.489990,874.295593 598.962097,873.198425 602.992004,873.749878 
	C620.878113,876.197571 638.934814,873.803406 656.832825,875.749939 
	C658.486084,875.929749 660.175049,875.828857 661.815002,876.074463 
	C665.687988,876.654663 667.877136,878.998718 667.589600,882.906799 
	C667.312927,886.666626 664.825623,888.292664 661.102661,888.374573 
	C654.261597,888.524902 647.458740,888.023926 640.668091,887.335205 
	C636.398376,886.902161 633.897095,887.877808 634.878113,892.957520 
	C635.346375,895.382141 635.130737,897.938904 635.240234,900.912720 
z"/>
<path fill="#FFFFFF" opacity="1.000000" stroke="none" 
	d="
M636.348022,769.815735 
	C637.018799,782.748352 637.685608,795.205383 638.337708,807.663147 
	C638.389832,808.659485 638.372437,809.662537 638.330933,810.660095 
	C638.093018,816.377563 635.626282,819.637878 631.653015,819.515442 
	C627.490723,819.387146 625.711060,816.256165 625.844238,810.289001 
	C626.260620,791.626282 624.290466,773.084900 622.815125,754.518616 
	C622.598022,751.787048 621.014404,751.332031 618.760315,751.346375 
	C613.097778,751.382324 607.429382,751.374207 601.862854,750.108704 
	C597.815125,749.188538 595.111450,747.053955 595.807983,742.465820 
	C596.491455,737.963745 599.810486,736.970398 603.620117,737.490540 
	C622.503784,740.068787 641.571167,737.469543 660.473633,739.625000 
	C665.974365,740.252258 668.678833,742.156494 668.545959,746.326843 
	C668.420471,750.266663 665.783386,752.336670 660.352539,752.217346 
	C653.870056,752.074951 647.377319,751.808716 640.921326,751.233337 
	C635.930664,750.788513 634.876404,752.903687 635.558594,757.386841 
	C636.157043,761.319946 636.104980,765.351990 636.348022,769.815735 
z"/>
</svg>